Coordinates
version=1
nRows=34
nColumns=34
inDegrees=no

Units are S.I. units (second, meters, Newtons, ...)
If the header above contains a line with 'inDegrees', this indicates whether rotational values are in degrees (yes) or radians (no).

endheader
time	pelvis_tilt	pelvis_list	pelvis_rotation	pelvis_tx	pelvis_ty	pelvis_tz	hip_flexion_r	hip_adduction_r	hip_rotation_r	knee_angle_r	ankle_angle_r	subtalar_angle_r	mtp_angle_r	hip_flexion_l	hip_adduction_l	hip_rotation_l	knee_angle_l	ankle_angle_l	subtalar_angle_l	mtp_angle_l	lumbar_extension	lumbar_bending	lumbar_rotation	arm_flex_r	arm_add_r	arm_rot_r	elbow_flex_r	pro_sup_r	arm_flex_l	arm_add_l	arm_rot_l	elbow_flex_l	pro_sup_l
0.46	0.16674	-0.0758103	0.00862681	0.410872	1.04669	-0.247486	-0.39251	0.129774	-0.099896	0.0680766	0.244113	0.00819014	-0.129736	0.268654	-0.139793	-0.17512	0.155157	0.0924149	0.160681	-0.129736	-0.434246	0.107085	0.145215	0.175695	-0.32844	0.00160717	0.831544	1.68309	-0.212086	-0.224132	-0.133305	0.738597	1.61446
0.47	0.168303	-0.0782795	0.00972376	0.42354	1.04391	-0.248175	-0.406542	0.131319	-0.106787	0.0715642	0.256259	0.0214214	-0.129736	0.248235	-0.134869	-0.178226	0.0760144	0.0914406	0.159817	-0.129736	-0.436476	0.109212	0.145283	0.180413	-0.331303	0.00223784	0.838318	1.68433	-0.212692	-0.220485	-0.14288	0.732247	1.6173
0.48	0.167316	-0.0818744	0.00820234	0.435763	1.04087	-0.248817	-0.413946	0.132492	-0.111126	0.0816747	0.270544	0.0362576	-0.129736	0.234115	-0.132278	-0.177435	0.0110273	0.0894706	0.157995	-0.129736	-0.437288	0.111878	0.147735	0.185772	-0.334631	0.00294197	0.84472	1.68391	-0.211062	-0.215905	-0.151718	0.723264	1.62456
0.49	0.158085	-0.0852578	0.00739477	0.448626	1.03738	-0.249638	-0.408165	0.133536	-0.11934	0.0996437	0.292144	0.0588423	-0.129736	0.239843	-0.130792	-0.178252	0	0.0972435	0.175727	-0.129736	-0.427594	0.114871	0.147098	0.190775	-0.336695	0.00822025	0.850794	1.64202	-0.20979	-0.21252	-0.153416	0.723212	1.55487
0.5	0.159455	-0.0878494	0.00688545	0.460906	1.03483	-0.250111	-0.415311	0.134046	-0.120191	0.113778	0.301213	0.0662668	-0.129736	0.236592	-0.130111	-0.17351	0	0.107385	0.19454	-0.129736	-0.431596	0.115888	0.148045	0.196469	-0.337027	0.0040083	0.850113	1.68642	-0.204345	-0.208632	-0.16551	0.700806	1.63809
0.51	0.161656	-0.0893574	0.00700787	0.473091	1.03249	-0.250809	-0.421911	0.132974	-0.122355	0.130849	0.309507	0.0761306	-0.129736	0.23515	-0.128959	-0.160166	0	0.115499	0.207569	-0.129736	-0.436707	0.116314	0.147717	0.201929	-0.337044	0.00168663	0.853573	1.68564	-0.197671	-0.205773	-0.169393	0.688816	1.64103
0.52	0.157353	-0.0925825	0.00829218	0.485257	1.0296	-0.251336	-0.419597	0.134312	-0.122145	0.151834	0.317187	0.0820541	-0.129736	0.243637	-0.130233	-0.130535	0	0.11732	0.201024	-0.129736	-0.43446	0.118785	0.146818	0.204974	-0.336488	0.00264633	0.867565	1.58588	-0.190397	-0.206783	-0.153518	0.704497	1.43879
0.53	0.165564	-0.0886034	0.00817935	0.497252	1.02784	-0.251831	-0.432912	0.126757	-0.12606	0.17046	0.322121	0.0962976	-0.129736	0.239691	-0.124712	-0.120126	0	0.129524	0.232324	-0.129736	-0.446541	0.112044	0.144468	0.209507	-0.332316	-0.0078756	0.857964	1.68521	-0.182101	-0.20237	-0.176815	0.657743	1.68836
0.54	0.17916	-0.0850443	0.0120795	0.509951	1.02693	-0.252448	-0.453122	0.122312	-0.125917	0.184435	0.314165	0.0945402	-0.129736	0.229951	-0.118783	-0.0932081	0.0163346	0.131369	0.234524	-0.129736	-0.46361	0.107029	0.139631	0.212341	-0.327656	-0.0152602	0.864367	1.67035	-0.173187	-0.202985	-0.176499	0.649557	1.67948
0.55	0.182259	-0.0810747	0.0140908	0.523083	1.02549	-0.253561	-0.458318	0.115498	-0.129201	0.206416	0.312153	0.102099	-0.129736	0.236089	-0.111367	-0.0773153	0.0582935	0.137365	0.253954	-0.129736	-0.468046	0.102026	0.134945	0.212379	-0.32329	-0.022635	0.864953	1.67402	-0.164924	-0.20195	-0.17675	0.635293	1.70206
0.56	0.184388	-0.0760555	0.0152879	0.536688	1.02412	-0.254132	-0.462663	0.108158	-0.130543	0.228527	0.306623	0.105665	-0.129736	0.24169	-0.103526	-0.0672752	0.0989336	0.139984	0.274853	-0.129736	-0.470536	0.0944804	0.130444	0.210082	-0.316663	-0.03136	0.86488	1.67823	-0.157661	-0.202479	-0.1783	0.621088	1.74552
0.57	0.187271	-0.0682713	0.0162652	0.550546	1.02328	-0.255449	-0.466137	0.0964009	-0.136746	0.253651	0.298862	0.113871	-0.129736	0.242224	-0.0914192	-0.0588459	0.131165	0.133664	0.283986	-0.129736	-0.473513	0.085202	0.124873	0.206504	-0.310962	-0.0394877	0.865031	1.67777	-0.15048	-0.202185	-0.174844	0.612869	1.76068
0.58	0.189314	-0.0613956	0.0162043	0.564684	1.0227	-0.256141	-0.467824	0.086128	-0.139665	0.279944	0.285338	0.11562	-0.129736	0.241895	-0.0819808	-0.0576593	0.158623	0.12298	0.293521	-0.129736	-0.475273	0.0752777	0.120535	0.201459	-0.303463	-0.0482094	0.864191	1.67696	-0.144046	-0.203356	-0.16913	0.609481	1.77008
0.59	0.190699	-0.051168	0.0156168	0.578946	1.02247	-0.257534	-0.465547	0.0704127	-0.148356	0.311889	0.270113	0.121391	-0.129736	0.239028	-0.0682633	-0.0582678	0.178589	0.104268	0.290797	-0.129736	-0.476195	0.0628821	0.114832	0.195564	-0.296757	-0.0561487	0.862702	1.67548	-0.137908	-0.203538	-0.161103	0.610059	1.77207
0.6	0.191532	-0.0448429	0.0146012	0.593356	1.02258	-0.258251	-0.460653	0.059625	-0.151848	0.345872	0.245987	0.116715	-0.129736	0.2374	-0.0611638	-0.0661149	0.198688	0.0854794	0.293172	-0.129736	-0.476482	0.0530661	0.111064	0.188881	-0.2887	-0.064643	0.859015	1.68242	-0.132201	-0.204704	-0.152132	0.613276	1.77901
0.61	0.1903	-0.0347575	0.0128881	0.607803	1.02278	-0.259721	-0.448584	0.0421414	-0.161871	0.388458	0.220561	0.115404	-0.129736	0.236605	-0.0492991	-0.0742598	0.21638	0.064257	0.28591	-0.129736	-0.474434	0.0404814	0.105663	0.181457	-0.281732	-0.0716493	0.855438	1.68309	-0.12691	-0.204979	-0.140047	0.619624	1.77427
0.62	0.189978	-0.029561	0.012297	0.622489	1.02336	-0.260531	-0.435538	0.031312	-0.16708	0.432258	0.183687	0.101456	-0.129736	0.236811	-0.0450499	-0.0873666	0.238832	0.0508219	0.289877	-0.129736	-0.473014	0.0319655	0.101202	0.173268	-0.273515	-0.0782175	0.851278	1.68062	-0.122173	-0.206581	-0.127145	0.627173	1.77554
0.63	0.186698	-0.0193121	0.0105497	0.637015	1.0238	-0.262229	-0.413101	0.010982	-0.179194	0.48691	0.146255	0.0906722	-0.129736	0.239005	-0.0337578	-0.0969892	0.26051	0.0401697	0.284208	-0.129736	-0.468619	0.0195344	0.0948803	0.164704	-0.266819	-0.0835849	0.846492	1.68247	-0.117499	-0.207039	-0.112164	0.635968	1.77032
0.64	0.18636	-0.0133533	0.0117791	0.65192	1.02468	-0.263256	-0.393351	-0.00240654	-0.187837	0.540062	0.0966239	0.0670083	-0.129736	0.239209	-0.0288053	-0.107719	0.286614	0.0414717	0.291569	-0.129736	-0.466708	0.0110852	0.0875635	0.155393	-0.258346	-0.0888779	0.840921	1.68598	-0.113561	-0.209774	-0.0954381	0.647209	1.76111
0.65	0.182129	-0.000256982	0.0107159	0.666362	1.02521	-0.265323	-0.362867	-0.029361	-0.201882	0.604958	0.04797	0.0452885	-0.129736	0.241	-0.0132704	-0.111852	0.308807	0.0446277	0.284666	-0.129736	-0.461436	-0.00340302	0.0784622	0.146503	-0.251987	-0.0923799	0.835656	1.68791	-0.109005	-0.210826	-0.0786625	0.658232	1.7535
0.66	0.183019	0.00720118	0.0133221	0.681189	1.02633	-0.266447	-0.339475	-0.0464833	-0.210695	0.663995	-0.0132415	0.00902136	-0.129736	0.237313	-0.0057342	-0.116737	0.333052	0.0586442	0.292096	-0.129736	-0.461098	-0.0126539	0.0682595	0.137466	-0.243409	-0.0957776	0.830344	1.68506	-0.104871	-0.214889	-0.0594584	0.673645	1.7299
0.67	0.178315	0.0241929	0.0126766	0.695358	1.02678	-0.268793	-0.304047	-0.0811951	-0.222907	0.734409	-0.0707965	-0.0261524	-0.129736	0.235834	0.0160187	-0.114315	0.349625	0.0695838	0.279954	-0.129736	-0.455871	-0.0303063	0.0561627	0.12931	-0.237195	-0.0981529	0.824221	1.6897	-0.0996893	-0.216629	-0.0432426	0.6857	1.72686
0.68	0.179013	0.0306246	0.0151136	0.709706	1.02789	-0.269769	-0.276712	-0.0987082	-0.22626	0.795138	-0.14099	-0.0774313	-0.129736	0.229224	0.0230293	-0.115634	0.36873	0.0897035	0.286149	-0.129736	-0.456259	-0.0382555	0.0456528	0.121824	-0.229012	-0.100986	0.816998	1.69532	-0.0938439	-0.220854	-0.0263169	0.699637	1.71894
0.69	0.173909	0.0490975	0.0138359	0.723472	1.02819	-0.272051	-0.238491	-0.13691	-0.231806	0.864741	-0.205948	-0.127778	-0.129736	0.224274	0.0473266	-0.110721	0.377779	0.102626	0.271057	-0.129736	-0.451277	-0.0571256	0.0328605	0.114854	-0.223075	-0.1033	0.80933	1.70802	-0.0871316	-0.223302	-0.0091937	0.714407	1.70094
0.7	0.175037	0.0524621	0.0144714	0.737179	1.02937	-0.272634	-0.20905	-0.150985	-0.227454	0.921622	-0.281668	-0.191434	-0.129736	0.214201	0.0506056	-0.112556	0.390695	0.12384	0.278055	-0.129736	-0.453105	-0.0621699	0.0246675	0.109293	-0.215998	-0.105208	0.801296	1.71325	-0.0784417	-0.22725	0.00687351	0.728139	1.69066
0.71	0.170269	0.069225	0.0117605	0.750499	1.02966	-0.274566	-0.169878	-0.186868	-0.224904	0.984695	-0.347309	-0.250828	-0.129736	0.205985	0.0728711	-0.108294	0.393342	0.136013	0.263645	-0.129736	-0.448865	-0.0794632	0.0135642	0.103542	-0.211076	-0.105854	0.793718	1.71746	-0.0693748	-0.229458	0.021415	0.740872	1.68246
0.72	0.172772	0.0689803	0.0102118	0.763661	1.03108	-0.274699	-0.14067	-0.195383	-0.214669	1.03369	-0.414768	-0.315213	-0.129736	0.191822	0.071557	-0.112275	0.400537	0.155947	0.272765	-0.129736	-0.452571	-0.0811007	0.00852922	0.0995367	-0.205532	-0.10629	0.785036	1.72015	-0.0575344	-0.232645	0.0356957	0.752555	1.6752
0.73	0.169924	0.0817277	0.00570297	0.776525	1.03175	-0.276174	-0.102986	-0.224507	-0.205294	1.08682	-0.462627	-0.369861	-0.129736	0.179396	0.0888148	-0.110177	0.398093	0.16639	0.261633	-0.129736	-0.450472	-0.0944938	0.000565716	0.095129	-0.202117	-0.105469	0.776853	1.7209	-0.0454793	-0.234026	0.0484199	0.763081	1.66888
0.74	0.174166	0.07801	0.0027589	0.789316	1.03358	-0.275939	-0.0758512	-0.226679	-0.19242	1.1263	-0.499817	-0.421444	-0.129736	0.161099	0.083189	-0.116533	0.400449	0.184152	0.273695	-0.129736	-0.455891	-0.0926101	-0.0019798	0.092241	-0.197875	-0.105193	0.766712	1.72653	-0.0310202	-0.236261	0.0602618	0.771442	1.66944
0.75	0.173634	0.0853269	-0.00273675	0.801729	1.03487	-0.277066	-0.0409227	-0.246384	-0.17933	1.1683	-0.510837	-0.459099	-0.129736	0.144669	0.093934	-0.116702	0.394267	0.192686	0.267217	-0.129736	-0.456273	-0.100284	-0.00701116	0.0892962	-0.195817	-0.10529	0.755665	1.74358	-0.0161418	-0.236183	0.0702733	0.778	1.67262
0.76	0.178887	0.0786359	-0.0057717	0.8143	1.03712	-0.276643	-0.0162033	-0.242533	-0.167024	1.19779	-0.506707	-0.489681	-0.129736	0.123371	0.0847653	-0.124974	0.392765	0.208089	0.282649	-0.129736	-0.462315	-0.0950143	-0.0083746	0.0868973	-0.192364	-0.105441	0.744758	1.74839	-0.000197207	-0.237646	0.080288	0.78466	1.67172
0.77	0.179423	0.0808618	-0.0110075	0.826386	1.03896	-0.277617	0.0164745	-0.252955	-0.153735	1.22818	-0.482305	-0.505235	-0.129736	0.104597	0.0896714	-0.126427	0.383819	0.214556	0.280028	-0.129736	-0.463679	-0.096965	-0.0117467	0.0847647	-0.191464	-0.105336	0.734493	1.75207	0.0162857	-0.236258	0.0881325	0.789381	1.673
0.78	0.184309	0.0725755	-0.0133547	0.838897	1.04146	-0.277188	0.0399441	-0.244838	-0.143882	1.24742	-0.450304	-0.513197	-0.129736	0.0819111	0.0789033	-0.13524	0.378824	0.227164	0.296826	-0.129736	-0.468654	-0.0894929	-0.0130476	0.081868	-0.188442	-0.106922	0.723878	1.75525	0.0323582	-0.237081	0.0956753	0.795214	1.67141
0.79	0.184799	0.0717537	-0.0174971	0.850889	1.04364	-0.278138	0.0710294	-0.248511	-0.132841	1.26618	-0.411847	-0.508243	-0.129736	0.0618543	0.0806122	-0.136384	0.367159	0.231398	0.295684	-0.129736	-0.469549	-0.0876589	-0.0161282	0.079279	-0.188166	-0.108061	0.714773	1.75444	0.048898	-0.234814	0.100174	0.798728	1.67709
